# xmcd
#
# Track frame offsets: 
#        150
#        13001
#        28108
#        42633
#        55454
#        69927
#        85233
#        99497
#        114107
#        128163
#        141114
#        153520
#        170355
#        184662
#        197899
#        212779
#        228006
#        240701
#        254968
#        268365
#
# Disc length: 3783 seconds
#
# Revision: 0
# Processed by: cddbd v1.5.2PL0 Copyright (c) Steve Scherf et al.
# Submitted via: ExactAudioCopy v0.99pb5
#
DISCID=230ec514
DTITLE=Various Artist - The Roots Of Bob Dylan (1 - Down On Penny's Farm)
DYEAR=2009
DGENRE=Blues/Folk
TTITLE0=Charlie Poole/Don't Let Your Deal Go Down
TTITLE1=Frank Hutchison/Worried Blues
TTITLE2=Bessie Smith/Backwater Blues
TTITLE3=Henry Thomas/Honey Won't You Allow Me One More Chance
TTITLE4=Blind Willie Johnson/Jesus Make Up My Dying Bed
TTITLE5=Luke Jordan/Cocaine Blues
TTITLE6=Grayson and Whitter/Omie Wise
TTITLE7=Kelly Harrell/My Name Is John Johannah
TTITLE8=Richard Brown/James Alley Blues
TTITLE9=Blind Lemon Jefferson/See That My Grave Is Kept Clean
TTITLE10=Blind Blake/You Gonna Quit Me Baby
TTITLE11=Gus Cannon/Minglewood Blues
TTITLE12=Buell Kazee/The Butcher's Boy
TTITLE13=Memphis Jug Band/Stealin' Stealin'
TTITLE14=Bo Carter/Corrine, Corrina
TTITLE15=Mississippi John Hurt/Frankie
TTITLE16=The Bently Boys/Down On Penny's Farm
TTITLE17=Memphis Minnie/When The Levee Breaks
TTITLE18=Charley Patton/Pony Blues
TTITLE19=Dick Justice/Henry Lee
EXTD=
EXTT0=
EXTT1=
EXTT2=
EXTT3=
EXTT4=
EXTT5=
EXTT6=
EXTT7=
EXTT8=
EXTT9=
EXTT10=
EXTT11=
EXTT12=
EXTT13=
EXTT14=
EXTT15=
EXTT16=
EXTT17=
EXTT18=
EXTT19=
PLAYORDER=
